#!OML:ASF H:\Male1\Project 1\Capture day 1\Session 1\Male1.ASF
:FULLY-SPECIFIED
:DEGREES
603
root -7.90631 15.223 -2.46641 97.2675 -87.5484 -99.5437
lowerback 2.64954 3.04028 1.74594
upperback 4.8565 3.99639 -1.53009
thorax 3.75499 2.0458 -2.52212
lowerneck -8.91742 -1.68468 2.67878
upperneck 11.1055 -3.42212 5.30865
head 4.8609 -1.27601 0.970493
rclavicle -1.78906e-014 1.35174e-014
rhumerus -29.8661 18.0726 -100.495
rradius 27.6469
rwrist -17.6758
rhand -6.81061 -10.0096
rfingers 7.12502
rthumb 19.053 -39.0964
lclavicle -1.78906e-014 1.35174e-014
lhumerus -27.8727 -14.724 83.9443
lradius 29.5937
lwrist 0.258167
lhand -20.1694 13.4404
lfingers 7.12502
lthumb 6.17625 43.3304
rfemur -4.40252 17.966 26.4862
rtibia 25.2035
rfoot -30.579 -30.0363
rtoes -12.9664
lfemur -5.17615 -16.4572 -21.6218
ltibia 29.5856
lfoot -33.273 30.2174
ltoes 11.3027
604
root -7.90056 15.2225 -2.46535 97.9085 -87.5119 -100.226
lowerback 2.66873 3.01682 1.76117
upperback 4.85052 3.96482 -1.505
thorax 3.73522 2.02991 -2.50643
lowerneck -8.91513 -1.70773 2.65955
upperneck 11.074 -3.43938 5.24959
head 4.84997 -1.28938 0.954339
rclavicle -2.70347e-014 7.95139e-015
rhumerus -29.8942 18.1317 -100.494
rradius 27.7012
rwrist -17.7414
rhand -6.78295 -10.023
rfingers 7.12502
rthumb 19.0796 -39.1072
lclavicle -2.70347e-014 7.95139e-015
lhumerus -28.4307 -15.6198 84.5924
lradius 30.3647
lwrist 0.761618
lhand -20.0011 13.1371
lfingers 7.12502
lthumb 6.33876 43.0222
rfemur -4.38258 17.9899 26.5251
rtibia 25.2007
rfoot -30.5329 -30.0591
rtoes -13.0482
lfemur -5.1491 -16.4366 -21.6
ltibia 29.5948
lfoot -33.2952 30.2005
ltoes 11.3787
605
root -7.89504 15.2222 -2.46452 98.877 -87.5243 -101.233
lowerback 2.70002 3.00111 1.71704
upperback 4.8311 3.94399 -1.49683
thorax 3.69219 2.01729 -2.47607
lowerneck -8.86993 -1.74492 2.62512
upperneck 11.0106 -3.47395 5.22137
head 4.82306 -1.31175 0.94947
rclavicle 2.80286e-014 -1.51076e-014
rhumerus -29.9453 18.1439 -100.483
rradius 27.7627
rwrist -17.7706
rhand -6.70468 -10.0169
rfingers 7.12502
rthumb 19.1548 -39.0936
lclavicle 2.80286e-014 -1.51076e-014
lhumerus -28.9824 -16.4431 85.2316
lradius 31.0791
lwrist 1.14771
lhand -19.8784 12.7489
lfingers 7.12502
lthumb 6.45724 42.6305
rfemur -4.38816 18.0001 26.5048
rtibia 25.2372
rfoot -30.4945 -30.0558
rtoes -13.1232
lfemur -5.10924 -16.4176 -21.6327
ltibia 29.5695
lfoot -33.3138 30.1948
ltoes 11.4895
606
root -7.88974 15.2222 -2.46381 100.033 -87.5936 -102.419
lowerback 2.72425 2.99244 1.61015
upperback 4.81013 3.93257 -1.50865
thorax 3.64905 2.00746 -2.43092
lowerneck -8.81364 -1.80225 2.58283
upperneck 10.9352 -3.536 5.2118
head 4.79147 -1.34737 0.949937
rclavicle 2.82274e-014 -1.27222e-014
rhumerus -29.9922 18.075 -100.448
rradius 27.8182
rwrist -17.7483
rhand -6.59945 -9.98555
rfingers 7.12502
rthumb 19.256 -39.0522
lclavicle 2.82274e-014 -1.27222e-014
lhumerus -29.4866 -17.1898 85.8483
lradius 31.7031
lwrist 1.42731
lhand -19.7954 12.3448
lfingers 7.12502
lthumb 6.53736 42.2239
rfemur -4.4211 17.9938 26.4164
rtibia 25.3137
rfoot -30.4782 -30.0218
rtoes -13.1579
lfemur -5.06028 -16.4028 -21.7266
ltibia 29.5092
lfoot -33.3204 30.1966
ltoes 11.618
607
root -7.88454 15.2221 -2.46314 101.315 -87.7026 -103.725
lowerback 2.73051 2.9894 1.46453
upperback 4.7959 3.92848 -1.53785
thorax 3.62205 2.00036 -2.38085
lowerneck -8.76909 -1.87699 2.53806
upperneck 10.8646 -3.62382 5.21429
head 4.7641 -1.3947 0.952712
rclavicle 4.83047e-014 -1.59028e-014
rhumerus -30.0156 17.921 -100.388
rradius 27.8569
rwrist -17.6809
rhand -6.49466 -9.93543
rfingers 7.12502
rthumb 19.3568 -38.992
lclavicle 4.83047e-014 -1.59028e-014
lhumerus -29.9165 -17.853 86.4295
lradius 32.22
lwrist 1.62787
lhand -19.7205 11.9791
lfingers 7.12502
lthumb 6.60967 41.856
rfemur -4.47794 17.9779 26.2803
rtibia 25.4241
rfoot -30.4873 -29.9641
rtoes -13.1613
lfemur -5.00588 -16.3916 -21.8618
ltibia 29.4197
lfoot -33.307 30.2061
ltoes 11.7419
608
root -7.87922 15.2218 -2.46251 102.823 -87.8275 -105.257
lowerback 2.7214 2.99166 1.30374
upperback 4.79317 3.93121 -1.57738
thorax 3.61579 1.99646 -2.33172
lowerneck -8.74651 -1.96123 2.50315
upperneck 10.8063 -3.72694 5.21144
head 4.74424 -1.44871 0.951016
rclavicle 4.3832e-014 -1.74931e-014
rhumerus -30.0049 17.6958 -100.306
rradius 27.8709
rwrist -17.5784
rhand -6.40736 -9.88214
rfingers 7.12502
rthumb 19.4407 -38.9303
lclavicle 4.3832e-014 -1.74931e-014
lhumerus -30.2495 -18.4138 86.9667
lradius 32.6032
lwrist 1.75652
lhand -19.6283 11.6708
lfingers 7.12502
lthumb 6.69863 41.5448
rfemur -4.54659 17.9607 26.1244
rtibia 25.5551
rfoot -30.5112 -29.8968
rtoes -13.1667
lfemur -4.94648 -16.3823 -22.0158
ltibia 29.3127
lfoot -33.2677 30.2362
ltoes 11.824
